<svg width="35" height="27" viewBox="0 0 35 27" fill="none" xmlns="http://www.w3.org/2000/svg">
<path d="M29.6741 2.22912C33.6269 7.98095 35.5791 14.4689 34.8493 21.9379C34.8462 21.9695 34.8296 21.9985 34.8034 22.0176C31.81 24.1929 28.9098 25.5131 26.0503 26.3886C26.0281 26.3953 26.0042 26.3949 25.9822 26.3876C25.9601 26.3802 25.941 26.3662 25.9274 26.3475C25.2668 25.4378 24.6665 24.4787 24.1406 23.4716C24.1105 23.4123 24.138 23.3408 24.2001 23.3174C25.1535 22.9619 26.06 22.5359 26.9319 22.0315C27.0006 21.9916 27.0049 21.8942 26.9415 21.8474C26.7564 21.7115 26.5731 21.5686 26.3977 21.4257C26.3649 21.3993 26.3207 21.3941 26.2835 21.4118C20.6227 23.999 14.4216 23.999 8.69385 21.4118C8.65667 21.3954 8.61248 21.401 8.58054 21.427C8.40554 21.5699 8.22179 21.7115 8.03848 21.8474C7.97504 21.8942 7.98029 21.9916 8.04942 22.0315C8.92135 22.5264 9.82785 22.9619 10.7799 23.3192C10.8415 23.3425 10.8709 23.4123 10.8402 23.4716C10.3257 24.48 9.72548 25.4391 9.0526 26.3488C9.02329 26.3856 8.97517 26.4025 8.92967 26.3886C6.08373 25.5131 3.18355 24.1929 0.190182 22.0176C0.165245 21.9985 0.147307 21.9682 0.144682 21.9366C-0.465192 15.476 0.777743 8.93439 5.31505 2.22782C5.32599 2.21007 5.34261 2.19621 5.36186 2.18799C7.59442 1.17393 9.98623 0.427887 12.4861 0.00182527C12.5316 -0.00510255 12.5771 0.0156809 12.6007 0.0555159C12.9096 0.596753 13.2627 1.29083 13.5015 1.85805C16.1366 1.4597 18.8128 1.4597 21.503 1.85805C21.7418 1.30296 22.0826 0.596753 22.3902 0.0555159C22.4012 0.0357542 22.4181 0.0199222 22.4387 0.0102802C22.4593 0.000638104 22.4824 -0.00232101 22.5048 0.00182527C25.006 0.429186 27.3978 1.17523 29.6286 2.18799C29.6483 2.19621 29.6645 2.21007 29.6741 2.22912ZM14.8412 14.513C14.8687 12.6031 13.4617 11.0227 11.6955 11.0227C9.94379 11.0227 8.55036 12.5893 8.55036 14.513C8.55036 16.4364 9.97135 18.0029 11.6955 18.0029C13.4477 18.0029 14.8412 16.4364 14.8412 14.513ZM26.4708 14.513C26.4983 12.6031 25.0913 11.0227 23.3256 11.0227C21.5734 11.0227 20.18 12.5893 20.18 14.513C20.18 16.4364 21.601 18.0029 23.3256 18.0029C25.0913 18.0029 26.4708 16.4364 26.4708 14.513Z" fill="black"/>
</svg>
