<svg width="62" height="62" viewBox="0 0 62 62" fill="none" xmlns="http://www.w3.org/2000/svg">
<path d="M44.9618 19.4153H32.6995V11.2404H55.1804C55.9931 11.2395 56.7723 10.9163 57.347 10.3415C57.9218 9.76684 58.245 8.98763 58.2459 8.17487V0H54.1585V7.15301H31.6776C30.8649 7.15392 30.0856 7.47719 29.5109 8.0519C28.9362 8.62661 28.613 9.40582 28.612 10.2186V19.4153H16.3497C12.015 19.4202 7.85925 21.1443 4.79414 24.2095C1.72903 27.2746 0.00490209 31.4303 0 35.765V48.66C0.00348219 51.7433 1.22986 54.6993 3.41009 56.8796C5.59032 59.0598 8.54634 60.2862 11.6296 60.2896H11.8596C13.565 60.2919 15.2499 59.9181 16.7943 59.1948C18.3387 58.4716 19.7047 57.4166 20.7948 56.1051L27.5263 48.0273H33.7377L40.4648 56.7725C41.9457 58.6973 43.9921 60.1102 46.3167 60.813C48.6414 61.5157 51.1277 61.4731 53.4269 60.6911C55.7261 59.909 57.7228 58.4268 59.1368 56.4524C60.5509 54.478 61.3113 52.1104 61.3115 49.6819V35.765C61.3066 31.4303 59.5825 27.2746 56.5174 24.2095C53.4523 21.1443 49.2965 19.4202 44.9618 19.4153V19.4153ZM57.2241 49.6819C57.224 51.257 56.7309 52.7925 55.8138 54.0731C54.8966 55.3537 53.6016 56.315 52.1104 56.8222C50.6192 57.3293 49.0066 57.3569 47.4989 56.901C45.9912 56.4452 44.6641 55.5287 43.7037 54.2802L35.7495 43.9399H25.6111L17.6541 53.4884C16.9472 54.3389 16.0614 55.023 15.0599 55.492C14.0584 55.9611 12.9658 56.2036 11.8599 56.2022H11.63C9.63033 56.2001 7.71313 55.4048 6.2991 53.9908C4.88506 52.5769 4.08967 50.6597 4.08743 48.66V35.765C4.09109 32.514 5.38418 29.3972 7.68301 27.0983C9.98185 24.7995 13.0987 23.5064 16.3497 23.5027H44.9618C48.2128 23.5064 51.3297 24.7995 53.6285 27.0983C55.9273 29.3972 57.2204 32.514 57.2241 35.765V49.6819Z" fill="#ED9165"/>
<path d="M48.0274 29.6339H43.9399V33.7213H48.0274V29.6339Z" fill="#ED9165"/>
<path d="M48.0274 39.8525H43.9399V43.94H48.0274V39.8525Z" fill="#ED9165"/>
<path d="M42.918 34.7432H38.8306V38.8306H42.918V34.7432Z" fill="#ED9165"/>
<path d="M53.1368 34.7432H49.0493V38.8306H53.1368V34.7432Z" fill="#ED9165"/>
<path d="M17.3715 29.6339H13.2841V34.7432H8.1748V38.8306H13.2841V43.9399H17.3715V38.8306H22.4808V34.7432H17.3715V29.6339Z" fill="#ED9165"/>
</svg>
