<?xml version="1.0" encoding="UTF-8"?><svg id="a" xmlns="http://www.w3.org/2000/svg" viewBox="0 0 102 107"><defs><style>.b{stroke-width:4.4502px;}.b,.c{fill:none;stroke:#f8a06d;stroke-miterlimit:10;}.c{stroke-width:5.0436px;}</style></defs><path class="b" d="M73.9218,34.9601c3.2195,8.6159,6.439,17.2318,9.6586,25.8476,.9528,.0247,6.9507,.0802,11.4122-4.6981,5.4986-5.8891,3.5403-13.6338,3.4141-14.0985-1.5163-5.5836-6.2735-10.1298-12.2388-10.9726-6.7266-.9504-11.5546,3.2932-12.246,3.9216Z"/><path class="b" d="M81.4821,31.1686c-1.2072-2.2188-3.4809-7.1354-3.1936-13.6369,.1913-4.33,1.4461-7.7216,2.4155-9.7988-1.7086,.1013-9.1109,.7309-14.9075,6.8811-4.4796,4.7528-5.4966,10.1462-5.7739,12.1613-6.0186-2.8372-13.0475-1.5222-17.2307,3.0545-5.0951,5.5745-4.7141,14.6153,.6695,19.976,5.2257,5.2034,13.8929,5.6729,19.3198,1.1081,5.7751-4.8576,4.7871-12.814,4.7095-13.3653-3.9897,1.4498-7.9795,2.8997-11.9692,4.3495"/><path class="c" d="M31.5851,37.0702c-15.4263,.7853-27.7499,13.2248-28.405,28.2806-.7246,16.6532,13.1053,30.1029,27.7304,30.7265,16.7899,.716,32.84-15.5483,30.8444-35.8276-7.8853,.6419-15.7705,1.2838-23.6558,1.9257-2.1713-8.3684-4.3427-16.7368-6.514-25.1052Z"/></svg>