<?xml version="1.0" encoding="UTF-8"?><svg id="a" xmlns="http://www.w3.org/2000/svg" viewBox="0 0 117.9987 102"><defs><style>.b{stroke-width:4.6396px;}.b,.c{fill:none;stroke:#f8a06d;stroke-miterlimit:10;}.c{stroke-width:5.2583px;}</style></defs><path class="b" d="M93.5264,38.9735c-.7052,9.5633-1.4104,19.1265-2.1156,28.6898,.8917,.4386,6.5483,3.1048,12.856,.5233,7.7741-3.1816,9.2942-11.3702,9.3772-11.8653,.997-5.9491-1.5276-12.3279-6.8102-15.7257-5.9567-3.8314-12.3787-1.916-13.3074-1.6221Z"/><path class="b" d="M102.3391,38.677c-.1765-2.6276-.1875-8.275,2.9178-14.3075,2.0681-4.0177,4.7344-6.6832,6.5577-8.2281-1.6624-.6486-8.9476-3.278-17.1178,.0211-6.3138,2.5495-9.6273,7.2145-10.7681,9.0022-4.464-5.3099-11.6943-7.1274-17.6507-4.6155-7.2549,3.0595-10.8337,11.7883-8.0707,19.2115,2.6819,7.2055,10.6862,11.427,17.8154,9.4684,7.5865-2.0842,10.1179-10.0504,10.2846-10.6064-4.4106-.3654-8.8211-.7308-13.2317-1.0962"/><path class="c" d="M46.6643,28.8778c-14.9528-5.9784-32.0454,.4331-39.2267,14.4074-7.9431,15.4569-.7054,34.222,12.8747,41.1858,15.5901,7.9945,37.8789-.4157,44.8258-20.4924-7.748-2.8281-15.4961-5.6563-23.2442-8.4844,1.5901-8.8721,3.1803-17.7442,4.7704-26.6163Z"/></svg>